<mxfile host="Electron" modified="2024-07-25T06:47:20.616Z" agent="Mozilla/5.0 (Windows NT 10.0; Win64; x64) AppleWebKit/537.36 (KHTML, like Gecko) draw.io/24.6.4 Chrome/124.0.6367.207 Electron/30.0.6 Safari/537.36" etag="hJ1lHHij_MwauMuvPwzJ" version="24.6.4" type="device">
  <diagram name="Page-1" id="kYUT1O_2kqlm77g_NuUF">
    <mxGraphModel dx="864" dy="516" grid="1" gridSize="10" guides="1" tooltips="1" connect="1" arrows="1" fold="1" page="1" pageScale="1" pageWidth="850" pageHeight="1100" math="0" shadow="0">
      <root>
        <mxCell id="0" />
        <mxCell id="1" parent="0" />
        <mxCell id="67S95uuHCJpeX40qsFQI-3" value="" style="edgeStyle=orthogonalEdgeStyle;rounded=0;orthogonalLoop=1;jettySize=auto;html=1;" edge="1" parent="1" source="67S95uuHCJpeX40qsFQI-1" target="67S95uuHCJpeX40qsFQI-2">
          <mxGeometry relative="1" as="geometry" />
        </mxCell>
        <mxCell id="67S95uuHCJpeX40qsFQI-1" value="Menempelkan alat sensor ke tubuh" style="ellipse;whiteSpace=wrap;html=1;" vertex="1" parent="1">
          <mxGeometry x="340" y="120" width="120" height="80" as="geometry" />
        </mxCell>
        <mxCell id="67S95uuHCJpeX40qsFQI-5" style="edgeStyle=orthogonalEdgeStyle;rounded=0;orthogonalLoop=1;jettySize=auto;html=1;" edge="1" parent="1" source="67S95uuHCJpeX40qsFQI-2" target="67S95uuHCJpeX40qsFQI-4">
          <mxGeometry relative="1" as="geometry" />
        </mxCell>
        <mxCell id="67S95uuHCJpeX40qsFQI-2" value="Mendeteksi suhu tubuh" style="rounded=1;whiteSpace=wrap;html=1;" vertex="1" parent="1">
          <mxGeometry x="340" y="240" width="120" height="60" as="geometry" />
        </mxCell>
        <mxCell id="67S95uuHCJpeX40qsFQI-7" value="" style="edgeStyle=orthogonalEdgeStyle;rounded=0;orthogonalLoop=1;jettySize=auto;html=1;" edge="1" parent="1" source="67S95uuHCJpeX40qsFQI-4" target="67S95uuHCJpeX40qsFQI-6">
          <mxGeometry relative="1" as="geometry" />
        </mxCell>
        <mxCell id="67S95uuHCJpeX40qsFQI-4" value="Suhu tubuh akan terdeteksi" style="rounded=1;whiteSpace=wrap;html=1;" vertex="1" parent="1">
          <mxGeometry x="340" y="340" width="120" height="60" as="geometry" />
        </mxCell>
        <mxCell id="67S95uuHCJpeX40qsFQI-9" value="" style="edgeStyle=orthogonalEdgeStyle;rounded=0;orthogonalLoop=1;jettySize=auto;html=1;" edge="1" parent="1" source="67S95uuHCJpeX40qsFQI-6" target="67S95uuHCJpeX40qsFQI-8">
          <mxGeometry relative="1" as="geometry" />
        </mxCell>
        <mxCell id="67S95uuHCJpeX40qsFQI-12" style="edgeStyle=orthogonalEdgeStyle;rounded=0;orthogonalLoop=1;jettySize=auto;html=1;entryX=0;entryY=0.5;entryDx=0;entryDy=0;" edge="1" parent="1" source="67S95uuHCJpeX40qsFQI-6" target="67S95uuHCJpeX40qsFQI-11">
          <mxGeometry relative="1" as="geometry" />
        </mxCell>
        <mxCell id="67S95uuHCJpeX40qsFQI-6" value="Apakah suhu tubuh pasien yang terdeteksi itu sakit" style="rhombus;whiteSpace=wrap;html=1;" vertex="1" parent="1">
          <mxGeometry x="330" y="430" width="140" height="80" as="geometry" />
        </mxCell>
        <mxCell id="67S95uuHCJpeX40qsFQI-18" value="" style="edgeStyle=orthogonalEdgeStyle;rounded=0;orthogonalLoop=1;jettySize=auto;html=1;" edge="1" parent="1" source="67S95uuHCJpeX40qsFQI-8" target="67S95uuHCJpeX40qsFQI-17">
          <mxGeometry relative="1" as="geometry" />
        </mxCell>
        <mxCell id="67S95uuHCJpeX40qsFQI-8" value="Buzzer akan berbunyi&amp;nbsp;" style="rounded=1;whiteSpace=wrap;html=1;" vertex="1" parent="1">
          <mxGeometry x="340" y="620" width="120" height="60" as="geometry" />
        </mxCell>
        <mxCell id="67S95uuHCJpeX40qsFQI-10" value="Ya" style="text;html=1;align=center;verticalAlign=middle;resizable=0;points=[];autosize=1;strokeColor=none;fillColor=none;" vertex="1" parent="1">
          <mxGeometry x="390" y="528" width="40" height="30" as="geometry" />
        </mxCell>
        <mxCell id="67S95uuHCJpeX40qsFQI-16" value="" style="edgeStyle=orthogonalEdgeStyle;rounded=0;orthogonalLoop=1;jettySize=auto;html=1;" edge="1" parent="1" source="67S95uuHCJpeX40qsFQI-11" target="67S95uuHCJpeX40qsFQI-15">
          <mxGeometry relative="1" as="geometry" />
        </mxCell>
        <mxCell id="67S95uuHCJpeX40qsFQI-11" value="Buzzer tidak akan berbunyi" style="rounded=1;whiteSpace=wrap;html=1;" vertex="1" parent="1">
          <mxGeometry x="600" y="440" width="120" height="60" as="geometry" />
        </mxCell>
        <mxCell id="67S95uuHCJpeX40qsFQI-13" value="Tidak" style="text;html=1;align=center;verticalAlign=middle;resizable=0;points=[];autosize=1;strokeColor=none;fillColor=none;" vertex="1" parent="1">
          <mxGeometry x="500" y="450" width="50" height="30" as="geometry" />
        </mxCell>
        <mxCell id="67S95uuHCJpeX40qsFQI-15" value="Pasien tidak terdeteksi sedang sakit" style="ellipse;whiteSpace=wrap;html=1;" vertex="1" parent="1">
          <mxGeometry x="600" y="600" width="120" height="80" as="geometry" />
        </mxCell>
        <mxCell id="67S95uuHCJpeX40qsFQI-20" value="" style="edgeStyle=orthogonalEdgeStyle;rounded=0;orthogonalLoop=1;jettySize=auto;html=1;" edge="1" parent="1" source="67S95uuHCJpeX40qsFQI-17" target="67S95uuHCJpeX40qsFQI-19">
          <mxGeometry relative="1" as="geometry" />
        </mxCell>
        <mxCell id="67S95uuHCJpeX40qsFQI-17" value="Indikator akan menunjukan hasil suhu dari pasien" style="rounded=1;whiteSpace=wrap;html=1;" vertex="1" parent="1">
          <mxGeometry x="340" y="730" width="120" height="60" as="geometry" />
        </mxCell>
        <mxCell id="67S95uuHCJpeX40qsFQI-19" value="Pasien terdeteksi sakit" style="ellipse;whiteSpace=wrap;html=1;" vertex="1" parent="1">
          <mxGeometry x="340" y="840" width="120" height="80" as="geometry" />
        </mxCell>
      </root>
    </mxGraphModel>
  </diagram>
</mxfile>
